<?xml version="1.0" encoding="UTF-8"?>
<svg width="20px" height="20px" viewBox="0 0 20 20" version="1.1" xmlns="http://www.w3.org/2000/svg" xmlns:xlink="http://www.w3.org/1999/xlink">
    <!-- Generator: Sketch 49 (51002) - http://www.bohemiancoding.com/sketch -->
    <title>Info</title>
    <desc>Created with Sketch.</desc>
    <defs>
        <path d="M16,8 C16,3.58172229 12.4182743,0 8,0 C3.58172229,0 0,3.58172229 0,8 C0,12.4182743 3.58172229,16 8,16 C12.4182743,16 16,12.4182743 16,8 Z" id="path-1"></path>
    </defs>
    <g id="Info" stroke="none" stroke-width="1" fill="none" fill-rule="evenodd">
        <g id="by_info" transform="translate(2.000000, 2.000000)">
            <g id="bt-more-copy" stroke-width="1">
                <g id="Stroke-4">
                    <use fill="#FFFFFF" fill-rule="evenodd" xlink:href="#path-1"></use>
                    <path stroke="#9A9A9A" stroke-width="1" d="M15.5,8 C15.5,3.85786588 12.1421331,0.5 8,0.5 C3.85786466,0.5 0.5,3.85786466 0.5,8 C0.5,12.1421331 3.85786588,15.5 8,15.5 C12.1421319,15.5 15.5,12.1421319 15.5,8 Z"></path>
                </g>
            </g>
            <path d="M8.46067212,4.28368433 C8.46067212,4.11445155 8.40364889,3.97465265 8.28960071,3.86428345 C8.17555253,3.75391424 8.03391418,3.69873047 7.8646814,3.69873047 C7.69544862,3.69873047 7.55381026,3.75391424 7.43976208,3.86428345 C7.32571391,3.97465265 7.26869067,4.11445155 7.26869067,4.28368433 C7.26869067,4.44555916 7.32755337,4.58535805 7.44528052,4.70308521 C7.56300767,4.82081236 7.70280656,4.87967505 7.8646814,4.87967505 C8.03391418,4.87967505 8.17555253,4.82265182 8.28960071,4.70860364 C8.40364889,4.59455546 8.46067212,4.45291711 8.46067212,4.28368433 L8.46067212,4.28368433 Z M9.07873657,11.3583149 L9.07873657,11.2479463 C9.0051571,11.2332304 8.92973928,11.2240331 8.85248083,11.2203541 C8.77522239,11.2166752 8.70348349,11.2074779 8.63726196,11.192762 C8.57104044,11.1780461 8.51401721,11.1541331 8.46619055,11.1210223 C8.4183639,11.0879116 8.38709309,11.0345673 8.3723772,10.9609878 L8.3723772,6.02750903 L8.30615601,6.02750903 L6.8161792,6.5131311 L6.8161792,6.57935229 C6.91919046,6.61614203 7.01668179,6.65661013 7.10865613,6.70075781 C7.20063046,6.74490549 7.27972721,6.78905251 7.34594873,6.8332002 C7.39745436,6.86998993 7.42872516,6.91045803 7.43976208,6.95460571 C7.45079901,6.99875339 7.45631738,7.05025825 7.45631738,7.10912183 L7.45631738,10.8947666 C7.45631738,10.9609881 7.43240441,11.0161719 7.38457776,11.0603196 C7.3367511,11.1044673 7.27788841,11.139417 7.20798792,11.1651698 C7.13808742,11.1909226 7.05899068,11.2093172 6.97069531,11.2203541 C6.88239995,11.231391 6.79410591,11.2405883 6.70581055,11.2479463 L6.70581055,11.3583149 L9.07873657,11.3583149 Z" id="i" stroke="#3B92ED" stroke-width="0.5" fill="#3B92ED"></path>
        </g>
    </g>
</svg>